<svg xmlns="http://www.w3.org/2000/svg" width="900" height="520" viewBox="0 0 900 520" role="img">
<rect width="100%" height="100%" fill="#ffffff"/>
<text x="450.0" y="36" text-anchor="middle" font-family="Arial" font-size="24" font-weight="700" fill="#222">Best Phase 9 Learning Curve</text>
<line x1="80" y1="450" x2="750" y2="450" stroke="#333"/>
<line x1="80" y1="70" x2="80" y2="450" stroke="#333"/>
<line x1="80" y1="450.0" x2="750" y2="450.0" stroke="#e5e5e5"/>
<text x="70" y="454.0" text-anchor="end" font-family="Arial" font-size="12" fill="#555">0.48</text>
<line x1="80" y1="374.0" x2="750" y2="374.0" stroke="#e5e5e5"/>
<text x="70" y="378.0" text-anchor="end" font-family="Arial" font-size="12" fill="#555">0.61</text>
<line x1="80" y1="298.0" x2="750" y2="298.0" stroke="#e5e5e5"/>
<text x="70" y="302.0" text-anchor="end" font-family="Arial" font-size="12" fill="#555">0.73</text>
<line x1="80" y1="222.0" x2="750" y2="222.0" stroke="#e5e5e5"/>
<text x="70" y="226.0" text-anchor="end" font-family="Arial" font-size="12" fill="#555">0.85</text>
<line x1="80" y1="146.0" x2="750" y2="146.0" stroke="#e5e5e5"/>
<text x="70" y="150.0" text-anchor="end" font-family="Arial" font-size="12" fill="#555">0.98</text>
<line x1="80" y1="70.0" x2="750" y2="70.0" stroke="#e5e5e5"/>
<text x="70" y="74.0" text-anchor="end" font-family="Arial" font-size="12" fill="#555">1.10</text>
<polyline fill="none" stroke="#b4494b" stroke-width="3" points="80.0,100.8 303.3,180.9 526.7,243.7 750.0,287.3"/>
<circle cx="80.0" cy="100.8" r="4" fill="#b4494b"/>
<circle cx="303.3" cy="180.9" r="4" fill="#b4494b"/>
<circle cx="526.7" cy="243.7" r="4" fill="#b4494b"/>
<circle cx="750.0" cy="287.3" r="4" fill="#b4494b"/>
<rect x="775" y="68" width="14" height="14" fill="#b4494b"/>
<text x="796" y="80" font-family="Arial" font-size="13" fill="#222">train_loss</text>
<polyline fill="none" stroke="#2f6f9f" stroke-width="3" points="80.0,137.8 303.3,211.1 526.7,251.6 750.0,280.0"/>
<circle cx="80.0" cy="137.8" r="4" fill="#2f6f9f"/>
<circle cx="303.3" cy="211.1" r="4" fill="#2f6f9f"/>
<circle cx="526.7" cy="251.6" r="4" fill="#2f6f9f"/>
<circle cx="750.0" cy="280.0" r="4" fill="#2f6f9f"/>
<rect x="775" y="92" width="14" height="14" fill="#2f6f9f"/>
<text x="796" y="104" font-family="Arial" font-size="13" fill="#222">validation_loss</text>
<polyline fill="none" stroke="#3f8f61" stroke-width="3" points="80.0,419.2 303.3,368.6 526.7,343.9 750.0,323.8"/>
<circle cx="80.0" cy="419.2" r="4" fill="#3f8f61"/>
<circle cx="303.3" cy="368.6" r="4" fill="#3f8f61"/>
<circle cx="526.7" cy="343.9" r="4" fill="#3f8f61"/>
<circle cx="750.0" cy="323.8" r="4" fill="#3f8f61"/>
<rect x="775" y="116" width="14" height="14" fill="#3f8f61"/>
<text x="796" y="128" font-family="Arial" font-size="13" fill="#222">validation_macro_f1</text>
<text x="80.0" y="474" text-anchor="middle" font-family="Arial" font-size="12" fill="#555">1</text>
<text x="303.3" y="474" text-anchor="middle" font-family="Arial" font-size="12" fill="#555">2</text>
<text x="526.7" y="474" text-anchor="middle" font-family="Arial" font-size="12" fill="#555">3</text>
<text x="750.0" y="474" text-anchor="middle" font-family="Arial" font-size="12" fill="#555">4</text>
</svg>
