<svg xmlns="http://www.w3.org/2000/svg" width="920" height="460" viewBox="0 0 920 460" role="img">
<rect width="100%" height="100%" fill="#ffffff"/>
<text x="460.0" y="36" text-anchor="middle" font-family="Arial" font-size="24" font-weight="700" fill="#222">Tweet Length By Sentiment</text>
<text x="460.0" y="440" text-anchor="middle" font-family="Arial" font-size="14" fill="#333">Model token count</text>
<line x1="150.0" y1="72" x2="150.0" y2="398" stroke="#e0e0e0"/>
<text x="150.0" y="418" text-anchor="middle" font-family="Arial" font-size="12" fill="#555">0</text>
<line x1="266.7" y1="72" x2="266.7" y2="398" stroke="#e0e0e0"/>
<text x="266.7" y="418" text-anchor="middle" font-family="Arial" font-size="12" fill="#555">10</text>
<line x1="383.3" y1="72" x2="383.3" y2="398" stroke="#e0e0e0"/>
<text x="383.3" y="418" text-anchor="middle" font-family="Arial" font-size="12" fill="#555">20</text>
<line x1="500.0" y1="72" x2="500.0" y2="398" stroke="#e0e0e0"/>
<text x="500.0" y="418" text-anchor="middle" font-family="Arial" font-size="12" fill="#555">30</text>
<line x1="616.7" y1="72" x2="616.7" y2="398" stroke="#e0e0e0"/>
<text x="616.7" y="418" text-anchor="middle" font-family="Arial" font-size="12" fill="#555">40</text>
<line x1="733.3" y1="72" x2="733.3" y2="398" stroke="#e0e0e0"/>
<text x="733.3" y="418" text-anchor="middle" font-family="Arial" font-size="12" fill="#555">50</text>
<line x1="850.0" y1="72" x2="850.0" y2="398" stroke="#e0e0e0"/>
<text x="850.0" y="418" text-anchor="middle" font-family="Arial" font-size="12" fill="#555">60</text>
<text x="130" y="87" text-anchor="end" font-family="Arial" font-size="15" font-weight="700" fill="#222">Negative</text>
<line x1="255.0" y1="80" x2="710.0" y2="80" stroke="#b4494b" stroke-width="3"/>
<rect x="255.0" y="65" width="233.3" height="30" fill="#b4494b" opacity="0.35" stroke="#b4494b"/>
<line x1="336.7" y1="62" x2="336.7" y2="98" stroke="#b4494b" stroke-width="4"/>
<line x1="640.0" y1="67" x2="640.0" y2="93" stroke="#b4494b" stroke-width="2" stroke-dasharray="4 3"/>
<line x1="710.0" y1="67" x2="710.0" y2="93" stroke="#b4494b" stroke-width="2"/>
<text x="336.7" y="118" text-anchor="middle" font-family="Arial" font-size="11" fill="#333">median 16</text>
<text x="710.0" y="56" text-anchor="middle" font-family="Arial" font-size="11" fill="#333">p95 48</text>
<text x="130" y="157" text-anchor="end" font-family="Arial" font-size="15" font-weight="700" fill="#222">Neutral</text>
<line x1="266.7" y1="150" x2="686.7" y2="150" stroke="#607d8b" stroke-width="3"/>
<rect x="266.7" y="135" width="198.3" height="30" fill="#607d8b" opacity="0.35" stroke="#607d8b"/>
<line x1="348.3" y1="132" x2="348.3" y2="168" stroke="#607d8b" stroke-width="4"/>
<line x1="616.7" y1="137" x2="616.7" y2="163" stroke="#607d8b" stroke-width="2" stroke-dasharray="4 3"/>
<line x1="686.7" y1="137" x2="686.7" y2="163" stroke="#607d8b" stroke-width="2"/>
<text x="348.3" y="188" text-anchor="middle" font-family="Arial" font-size="11" fill="#333">median 17</text>
<text x="686.7" y="126" text-anchor="middle" font-family="Arial" font-size="11" fill="#333">p95 46</text>
<text x="130" y="227" text-anchor="end" font-family="Arial" font-size="15" font-weight="700" fill="#222">Positive</text>
<line x1="231.7" y1="220" x2="686.7" y2="220" stroke="#3f8f61" stroke-width="3"/>
<rect x="231.7" y="205" width="198.3" height="30" fill="#3f8f61" opacity="0.35" stroke="#3f8f61"/>
<line x1="313.3" y1="202" x2="313.3" y2="238" stroke="#3f8f61" stroke-width="4"/>
<line x1="593.3" y1="207" x2="593.3" y2="233" stroke="#3f8f61" stroke-width="2" stroke-dasharray="4 3"/>
<line x1="686.7" y1="207" x2="686.7" y2="233" stroke="#3f8f61" stroke-width="2"/>
<text x="313.3" y="258" text-anchor="middle" font-family="Arial" font-size="11" fill="#333">median 14</text>
<text x="686.7" y="196" text-anchor="middle" font-family="Arial" font-size="11" fill="#333">p95 46</text>
</svg>
