<svg xmlns="http://www.w3.org/2000/svg" width="980" height="640" viewBox="0 0 980 640" role="img">
<rect width="100%" height="100%" fill="#ffffff"/>
<text x="490.0" y="36" text-anchor="middle" font-family="Arial" font-size="24" font-weight="700" fill="#222">Top 15 Entities In Cleaned Dataset</text>
<text x="198" y="97.5" text-anchor="end" font-family="Arial" font-size="13" fill="#222">TomClancysGhostRecon</text>
<rect x="210" y="81.2" width="690.0" height="20.1" rx="3" fill="#5a6f8f"/>
<text x="908.0" y="96.5" font-family="Arial" font-size="12" fill="#222">2,254</text>
<text x="198" y="132.2" text-anchor="end" font-family="Arial" font-size="13" fill="#222">TomClancysRainbowSix</text>
<rect x="210" y="115.9" width="680.2" height="20.1" rx="3" fill="#5a6f8f"/>
<text x="898.2" y="131.2" font-family="Arial" font-size="12" fill="#222">2,222</text>
<text x="198" y="166.9" text-anchor="end" font-family="Arial" font-size="13" fill="#222">MaddenNFL</text>
<rect x="210" y="150.6" width="678.4" height="20.1" rx="3" fill="#5a6f8f"/>
<text x="896.4" y="165.8" font-family="Arial" font-size="12" fill="#222">2,216</text>
<text x="198" y="201.5" text-anchor="end" font-family="Arial" font-size="13" fill="#222">Verizon</text>
<rect x="210" y="185.2" width="653.6" height="20.1" rx="3" fill="#5a6f8f"/>
<text x="871.6" y="200.5" font-family="Arial" font-size="12" fill="#222">2,135</text>
<text x="198" y="236.2" text-anchor="end" font-family="Arial" font-size="13" fill="#222">NBA2K</text>
<rect x="210" y="219.9" width="649.3" height="20.1" rx="3" fill="#5a6f8f"/>
<text x="867.3" y="235.2" font-family="Arial" font-size="12" fill="#222">2,121</text>
<text x="198" y="270.9" text-anchor="end" font-family="Arial" font-size="13" fill="#222">Microsoft</text>
<rect x="210" y="254.6" width="646.5" height="20.1" rx="3" fill="#5a6f8f"/>
<text x="864.5" y="269.8" font-family="Arial" font-size="12" fill="#222">2,112</text>
<text x="198" y="305.5" text-anchor="end" font-family="Arial" font-size="13" fill="#222">Nvidia</text>
<rect x="210" y="289.2" width="643.2" height="20.1" rx="3" fill="#5a6f8f"/>
<text x="861.2" y="304.5" font-family="Arial" font-size="12" fill="#222">2,101</text>
<text x="198" y="340.2" text-anchor="end" font-family="Arial" font-size="13" fill="#222">WorldOfCraft</text>
<rect x="210" y="323.9" width="638.0" height="20.1" rx="3" fill="#5a6f8f"/>
<text x="856.0" y="339.2" font-family="Arial" font-size="12" fill="#222">2,084</text>
<text x="198" y="374.9" text-anchor="end" font-family="Arial" font-size="13" fill="#222">ApexLegends</text>
<rect x="210" y="358.6" width="638.0" height="20.1" rx="3" fill="#5a6f8f"/>
<text x="856.0" y="373.8" font-family="Arial" font-size="12" fill="#222">2,084</text>
<text x="198" y="409.5" text-anchor="end" font-family="Arial" font-size="13" fill="#222">johnson&amp;johnson</text>
<rect x="210" y="393.2" width="630.0" height="20.1" rx="3" fill="#5a6f8f"/>
<text x="848.0" y="408.5" font-family="Arial" font-size="12" fill="#222">2,058</text>
<text x="198" y="444.2" text-anchor="end" font-family="Arial" font-size="13" fill="#222">Amazon</text>
<rect x="210" y="427.9" width="628.8" height="20.1" rx="3" fill="#5a6f8f"/>
<text x="846.8" y="443.2" font-family="Arial" font-size="12" fill="#222">2,054</text>
<text x="198" y="478.9" text-anchor="end" font-family="Arial" font-size="13" fill="#222">Hearthstone</text>
<rect x="210" y="462.6" width="609.5" height="20.1" rx="3" fill="#5a6f8f"/>
<text x="827.5" y="477.8" font-family="Arial" font-size="12" fill="#222">1,991</text>
<text x="198" y="513.5" text-anchor="end" font-family="Arial" font-size="13" fill="#222">LeagueOfLegends</text>
<rect x="210" y="497.2" width="607.7" height="20.1" rx="3" fill="#5a6f8f"/>
<text x="825.7" y="512.5" font-family="Arial" font-size="12" fill="#222">1,985</text>
<text x="198" y="548.2" text-anchor="end" font-family="Arial" font-size="13" fill="#222">Borderlands</text>
<rect x="210" y="531.9" width="598.5" height="20.1" rx="3" fill="#5a6f8f"/>
<text x="816.5" y="547.2" font-family="Arial" font-size="12" fill="#222">1,955</text>
<text x="198" y="582.9" text-anchor="end" font-family="Arial" font-size="13" fill="#222">RedDeadRedemption(RDR)</text>
<rect x="210" y="566.6" width="596.3" height="20.1" rx="3" fill="#5a6f8f"/>
<text x="814.3" y="581.8" font-family="Arial" font-size="12" fill="#222">1,948</text>
</svg>
