<svg xmlns="http://www.w3.org/2000/svg" width="1080" height="900" viewBox="0 0 1080 900" role="img">
<rect width="100%" height="100%" fill="#ffffff"/>
<text x="540" y="36" text-anchor="middle" font-family="Arial" font-size="24" font-weight="700" fill="#222">Top Analysis Tokens By Sentiment</text>
<text x="40" y="70" font-family="Arial" font-size="20" font-weight="700" fill="#222">Negative</text>
<text x="210" y="111" text-anchor="end" font-family="Arial" font-size="12" fill="#222">not</text>
<rect x="225" y="98" width="600.0" height="16" rx="3" fill="#b4494b"/>
<text x="830.0" y="111" font-family="Arial" font-size="12" fill="#222">5,409</text>
<text x="210" y="133" text-anchor="end" font-family="Arial" font-size="12" fill="#222">game</text>
<rect x="225" y="120" width="537.2" height="16" rx="3" fill="#b4494b"/>
<text x="767.2" y="133" font-family="Arial" font-size="12" fill="#222">4,843</text>
<text x="210" y="155" text-anchor="end" font-family="Arial" font-size="12" fill="#222">fuck</text>
<rect x="225" y="142" width="261.8" height="16" rx="3" fill="#b4494b"/>
<text x="491.8" y="155" font-family="Arial" font-size="12" fill="#222">2,360</text>
<text x="210" y="177" text-anchor="end" font-family="Arial" font-size="12" fill="#222">play</text>
<rect x="225" y="164" width="229.0" height="16" rx="3" fill="#b4494b"/>
<text x="459.0" y="177" font-family="Arial" font-size="12" fill="#222">2,064</text>
<text x="210" y="199" text-anchor="end" font-family="Arial" font-size="12" fill="#222">com</text>
<rect x="225" y="186" width="211.1" height="16" rx="3" fill="#b4494b"/>
<text x="441.1" y="199" font-family="Arial" font-size="12" fill="#222">1,903</text>
<text x="210" y="221" text-anchor="end" font-family="Arial" font-size="12" fill="#222">like</text>
<rect x="225" y="208" width="183.3" height="16" rx="3" fill="#b4494b"/>
<text x="413.3" y="221" font-family="Arial" font-size="12" fill="#222">1,652</text>
<text x="210" y="243" text-anchor="end" font-family="Arial" font-size="12" fill="#222">no</text>
<rect x="225" y="230" width="171.9" height="16" rx="3" fill="#b4494b"/>
<text x="401.9" y="243" font-family="Arial" font-size="12" fill="#222">1,550</text>
<text x="210" y="265" text-anchor="end" font-family="Arial" font-size="12" fill="#222">shit</text>
<rect x="225" y="252" width="164.5" height="16" rx="3" fill="#b4494b"/>
<text x="394.5" y="265" font-family="Arial" font-size="12" fill="#222">1,483</text>
<text x="210" y="287" text-anchor="end" font-family="Arial" font-size="12" fill="#222">fix</text>
<rect x="225" y="274" width="159.4" height="16" rx="3" fill="#b4494b"/>
<text x="389.4" y="287" font-family="Arial" font-size="12" fill="#222">1,437</text>
<text x="210" y="309" text-anchor="end" font-family="Arial" font-size="12" fill="#222">twitter</text>
<rect x="225" y="296" width="146.0" height="16" rx="3" fill="#b4494b"/>
<text x="376.0" y="309" font-family="Arial" font-size="12" fill="#222">1,316</text>
<text x="40" y="335" font-family="Arial" font-size="20" font-weight="700" fill="#222">Neutral</text>
<text x="210" y="376" text-anchor="end" font-family="Arial" font-size="12" fill="#222">com</text>
<rect x="225" y="363" width="600.0" height="16" rx="3" fill="#607d8b"/>
<text x="830.0" y="376" font-family="Arial" font-size="12" fill="#222">4,187</text>
<text x="210" y="398" text-anchor="end" font-family="Arial" font-size="12" fill="#222">not</text>
<rect x="225" y="385" width="345.2" height="16" rx="3" fill="#607d8b"/>
<text x="575.2" y="398" font-family="Arial" font-size="12" fill="#222">2,409</text>
<text x="210" y="420" text-anchor="end" font-family="Arial" font-size="12" fill="#222">johnson</text>
<rect x="225" y="407" width="271.3" height="16" rx="3" fill="#607d8b"/>
<text x="501.3" y="420" font-family="Arial" font-size="12" fill="#222">1,893</text>
<text x="210" y="442" text-anchor="end" font-family="Arial" font-size="12" fill="#222">game</text>
<rect x="225" y="429" width="250.5" height="16" rx="3" fill="#607d8b"/>
<text x="480.5" y="442" font-family="Arial" font-size="12" fill="#222">1,748</text>
<text x="210" y="464" text-anchor="end" font-family="Arial" font-size="12" fill="#222">play</text>
<rect x="225" y="451" width="217.7" height="16" rx="3" fill="#607d8b"/>
<text x="447.7" y="464" font-family="Arial" font-size="12" fill="#222">1,519</text>
<text x="210" y="486" text-anchor="end" font-family="Arial" font-size="12" fill="#222">amazon</text>
<rect x="225" y="473" width="192.0" height="16" rx="3" fill="#607d8b"/>
<text x="422.0" y="486" font-family="Arial" font-size="12" fill="#222">1,340</text>
<text x="210" y="508" text-anchor="end" font-family="Arial" font-size="12" fill="#222">out</text>
<rect x="225" y="495" width="173.5" height="16" rx="3" fill="#607d8b"/>
<text x="403.5" y="508" font-family="Arial" font-size="12" fill="#222">1,211</text>
<text x="210" y="530" text-anchor="end" font-family="Arial" font-size="12" fill="#222">facebook</text>
<rect x="225" y="517" width="139.1" height="16" rx="3" fill="#607d8b"/>
<text x="369.1" y="530" font-family="Arial" font-size="12" fill="#222">971</text>
<text x="210" y="552" text-anchor="end" font-family="Arial" font-size="12" fill="#222">like</text>
<rect x="225" y="539" width="137.3" height="16" rx="3" fill="#607d8b"/>
<text x="367.3" y="552" font-family="Arial" font-size="12" fill="#222">958</text>
<text x="210" y="574" text-anchor="end" font-family="Arial" font-size="12" fill="#222">new</text>
<rect x="225" y="561" width="126.5" height="16" rx="3" fill="#607d8b"/>
<text x="356.5" y="574" font-family="Arial" font-size="12" fill="#222">883</text>
<text x="40" y="600" font-family="Arial" font-size="20" font-weight="700" fill="#222">Positive</text>
<text x="210" y="641" text-anchor="end" font-family="Arial" font-size="12" fill="#222">game</text>
<rect x="225" y="628" width="600.0" height="16" rx="3" fill="#3f8f61"/>
<text x="830.0" y="641" font-family="Arial" font-size="12" fill="#222">3,157</text>
<text x="210" y="663" text-anchor="end" font-family="Arial" font-size="12" fill="#222">play</text>
<rect x="225" y="650" width="473.2" height="16" rx="3" fill="#3f8f61"/>
<text x="703.2" y="663" font-family="Arial" font-size="12" fill="#222">2,490</text>
<text x="210" y="685" text-anchor="end" font-family="Arial" font-size="12" fill="#222">not</text>
<rect x="225" y="672" width="471.1" height="16" rx="3" fill="#3f8f61"/>
<text x="701.1" y="685" font-family="Arial" font-size="12" fill="#222">2,479</text>
<text x="210" y="707" text-anchor="end" font-family="Arial" font-size="12" fill="#222">com</text>
<rect x="225" y="694" width="390.9" height="16" rx="3" fill="#3f8f61"/>
<text x="620.9" y="707" font-family="Arial" font-size="12" fill="#222">2,057</text>
<text x="210" y="729" text-anchor="end" font-family="Arial" font-size="12" fill="#222">love</text>
<rect x="225" y="716" width="341.7" height="16" rx="3" fill="#3f8f61"/>
<text x="571.7" y="729" font-family="Arial" font-size="12" fill="#222">1,798</text>
<text x="210" y="751" text-anchor="end" font-family="Arial" font-size="12" fill="#222">good</text>
<rect x="225" y="738" width="296.1" height="16" rx="3" fill="#3f8f61"/>
<text x="526.1" y="751" font-family="Arial" font-size="12" fill="#222">1,558</text>
<text x="210" y="773" text-anchor="end" font-family="Arial" font-size="12" fill="#222">real</text>
<rect x="225" y="760" width="275.2" height="16" rx="3" fill="#3f8f61"/>
<text x="505.2" y="773" font-family="Arial" font-size="12" fill="#222">1,448</text>
<text x="210" y="795" text-anchor="end" font-family="Arial" font-size="12" fill="#222">like</text>
<rect x="225" y="782" width="257.7" height="16" rx="3" fill="#3f8f61"/>
<text x="487.7" y="795" font-family="Arial" font-size="12" fill="#222">1,356</text>
<text x="210" y="817" text-anchor="end" font-family="Arial" font-size="12" fill="#222">thank</text>
<rect x="225" y="804" width="243.8" height="16" rx="3" fill="#3f8f61"/>
<text x="473.8" y="817" font-family="Arial" font-size="12" fill="#222">1,283</text>
<text x="210" y="839" text-anchor="end" font-family="Arial" font-size="12" fill="#222">pic</text>
<rect x="225" y="826" width="238.9" height="16" rx="3" fill="#3f8f61"/>
<text x="468.9" y="839" font-family="Arial" font-size="12" fill="#222">1,257</text>
</svg>
